<svg width="48" height="48" viewBox="0 0 25 16" fill="none" xmlns="http://www.w3.org/2000/svg">
<path d="M10.9984 12.9985C12.9984 14.9985 14.9984 12.9985 14.9984 12.9985L18.9998 8.99979C21 7.00001 21 5.00001 19 3.00001C17.5 1.50001 15 1.00001 12.9984 2.9985C10.9969 4.99699 8.99845 6.9985 8.99845 6.9985C8.99845 6.9985 6.99847 8.99848 8.99845 10.9985" stroke="#EAF2F0" stroke-width="2"/>
<path d="M10.9991 2.9991C8.99912 0.999112 6.99915 2.9991 6.99915 2.9991L2.99778 6.99781C0.997561 8.99759 0.997561 10.9976 2.99756 12.9976C4.49756 14.4976 6.99756 14.9976 8.99911 12.9991C11.0007 11.0006 12.9991 8.9991 12.9991 8.9991C12.9991 8.9991 15 7.00002 13 5" stroke="#2CC2A3" stroke-width="2"/>
</svg>
