<svg width="146" height="24" viewBox="0 0 146 24" fill="none" xmlns="http://www.w3.org/2000/svg">
<path d="M16.4977 18.7477C19.4977 21.7477 22.4976 18.7477 22.4976 18.7477L28.4997 12.7497C31.5 9.74999 31.5 6.74999 28.5 3.74999C26.25 1.49999 22.5 0.749992 19.4977 3.74773C16.4953 6.74547 13.4977 9.74773 13.4977 9.74773C13.4977 9.74773 10.4977 12.7477 13.4977 15.7477" stroke="#EAF2F0" stroke-width="3"/>
<path d="M16.4987 3.74864C13.4987 0.74866 10.4987 3.74864 10.4987 3.74864L4.49667 9.7467C1.49634 12.7464 1.49634 15.7464 4.49634 18.7464C6.74634 20.9964 10.4963 21.7464 13.4987 18.7486C16.501 15.7509 19.4987 12.7486 19.4987 12.7486C19.4987 12.7486 22.5 9.75002 19.5 6.74999" stroke="#2CC2A3" stroke-width="3"/>
<path d="M37.692 5.024C37.196 5.024 36.78 4.856 36.444 4.52C36.108 4.184 35.94 3.768 35.94 3.272C35.94 2.776 36.108 2.36 36.444 2.024C36.78 1.688 37.196 1.52 37.692 1.52C38.172 1.52 38.58 1.688 38.916 2.024C39.252 2.36 39.42 2.776 39.42 3.272C39.42 3.768 39.252 4.184 38.916 4.52C38.58 4.856 38.172 5.024 37.692 5.024ZM39.036 6.776V20H36.3V6.776H39.036ZM48.1001 6.56C49.1401 6.56 50.0681 6.776 50.8841 7.208C51.7161 7.64 52.3641 8.28 52.8281 9.128C53.2921 9.976 53.5241 11 53.5241 12.2V20H50.8121V12.608C50.8121 11.424 50.5161 10.52 49.9241 9.896C49.3321 9.256 48.5241 8.936 47.5001 8.936C46.4761 8.936 45.6601 9.256 45.0521 9.896C44.4601 10.52 44.1641 11.424 44.1641 12.608V20H41.4281V6.776H44.1641V8.288C44.6121 7.744 45.1801 7.32 45.8681 7.016C46.5721 6.712 47.3161 6.56 48.1001 6.56Z" fill="#2CC2A3"/>
<path d="M58.5261 3.32V13.952C58.5261 15.216 58.8541 16.168 59.5101 16.808C60.1821 17.448 61.1101 17.768 62.2941 17.768C63.4941 17.768 64.4221 17.448 65.0781 16.808C65.7501 16.168 66.0861 15.216 66.0861 13.952V3.32H68.8221V13.904C68.8221 15.264 68.5261 16.416 67.9341 17.36C67.3421 18.304 66.5501 19.008 65.5581 19.472C64.5661 19.936 63.4701 20.168 62.2701 20.168C61.0701 20.168 59.9741 19.936 58.9821 19.472C58.0061 19.008 57.2301 18.304 56.6541 17.36C56.0781 16.416 55.7901 15.264 55.7901 13.904V3.32H58.5261ZM77.8564 6.56C78.8964 6.56 79.8244 6.776 80.6404 7.208C81.4724 7.64 82.1204 8.28 82.5844 9.128C83.0484 9.976 83.2804 11 83.2804 12.2V20H80.5684V12.608C80.5684 11.424 80.2724 10.52 79.6804 9.896C79.0884 9.256 78.2804 8.936 77.2564 8.936C76.2324 8.936 75.4164 9.256 74.8084 9.896C74.2164 10.52 73.9204 11.424 73.9204 12.608V20H71.1844V6.776H73.9204V8.288C74.3684 7.744 74.9364 7.32 75.6244 7.016C76.3284 6.712 77.0724 6.56 77.8564 6.56ZM86.9623 5.024C86.4663 5.024 86.0503 4.856 85.7143 4.52C85.3783 4.184 85.2103 3.768 85.2103 3.272C85.2103 2.776 85.3783 2.36 85.7143 2.024C86.0503 1.688 86.4663 1.52 86.9623 1.52C87.4423 1.52 87.8503 1.688 88.1863 2.024C88.5223 2.36 88.6903 2.776 88.6903 3.272C88.6903 3.768 88.5223 4.184 88.1863 4.52C87.8503 4.856 87.4423 5.024 86.9623 5.024ZM88.3063 6.776V20H85.5703V6.776H88.3063ZM93.8904 9.008V16.328C93.8904 16.824 94.0024 17.184 94.2264 17.408C94.4664 17.616 94.8664 17.72 95.4264 17.72H97.1064V20H94.9464C93.7144 20 92.7704 19.712 92.1144 19.136C91.4584 18.56 91.1304 17.624 91.1304 16.328V9.008H89.5704V6.776H91.1304V3.488H93.8904V6.776H97.1064V9.008H93.8904ZM99.8201 5.024C99.3241 5.024 98.9081 4.856 98.5721 4.52C98.2361 4.184 98.0681 3.768 98.0681 3.272C98.0681 2.776 98.2361 2.36 98.5721 2.024C98.9081 1.688 99.3241 1.52 99.8201 1.52C100.3 1.52 100.708 1.688 101.044 2.024C101.38 2.36 101.548 2.776 101.548 3.272C101.548 3.768 101.38 4.184 101.044 4.52C100.708 4.856 100.3 5.024 99.8201 5.024ZM101.164 6.776V20H98.4281V6.776H101.164ZM109.292 20.216C108.044 20.216 106.916 19.936 105.908 19.376C104.9 18.8 104.108 18 103.532 16.976C102.956 15.936 102.668 14.736 102.668 13.376C102.668 12.032 102.964 10.84 103.556 9.8C104.148 8.76 104.956 7.96 105.98 7.4C107.004 6.84 108.148 6.56 109.412 6.56C110.676 6.56 111.82 6.84 112.844 7.4C113.868 7.96 114.676 8.76 115.268 9.8C115.86 10.84 116.156 12.032 116.156 13.376C116.156 14.72 115.852 15.912 115.244 16.952C114.636 17.992 113.804 18.8 112.748 19.376C111.708 19.936 110.556 20.216 109.292 20.216ZM109.292 17.84C109.996 17.84 110.652 17.672 111.26 17.336C111.884 17 112.388 16.496 112.772 15.824C113.156 15.152 113.348 14.336 113.348 13.376C113.348 12.416 113.164 11.608 112.796 10.952C112.428 10.28 111.94 9.776 111.332 9.44C110.724 9.104 110.068 8.936 109.364 8.936C108.66 8.936 108.004 9.104 107.396 9.44C106.804 9.776 106.332 10.28 105.98 10.952C105.628 11.608 105.452 12.416 105.452 13.376C105.452 14.8 105.812 15.904 106.532 16.688C107.268 17.456 108.188 17.84 109.292 17.84ZM124.333 6.56C125.373 6.56 126.301 6.776 127.117 7.208C127.949 7.64 128.597 8.28 129.061 9.128C129.525 9.976 129.757 11 129.757 12.2V20H127.045V12.608C127.045 11.424 126.749 10.52 126.157 9.896C125.565 9.256 124.757 8.936 123.733 8.936C122.709 8.936 121.893 9.256 121.285 9.896C120.693 10.52 120.397 11.424 120.397 12.608V20H117.661V6.776H120.397V8.288C120.845 7.744 121.413 7.32 122.101 7.016C122.805 6.712 123.549 6.56 124.333 6.56Z" fill="#EAF2F0"/>
</svg>
