<svg width="146" height="25" viewBox="0 0 146 25" fill="none" xmlns="http://www.w3.org/2000/svg">
<path d="M17.1851 19.5289C20.3101 22.6539 23.435 19.5289 23.435 19.5289L29.6872 13.2809C32.8125 10.1563 32.8125 7.03125 29.6875 3.90625C27.3438 1.5625 23.4375 0.781254 20.3101 3.9039C17.1827 7.02654 14.0601 10.1539 14.0601 10.1539C14.0601 10.1539 10.9351 13.2789 14.0601 16.4039" stroke="#313749" stroke-width="3.125"/>
<path d="M17.1861 3.90485C14.0611 0.779867 10.9362 3.90485 10.9362 3.90485L4.68405 10.1528C1.5587 13.2775 1.5587 16.4025 4.6837 19.5275C7.02745 21.8712 10.9337 22.6525 14.0611 19.5298C17.1886 16.4072 20.3111 13.2798 20.3111 13.2798C20.3111 13.2798 23.4375 10.1563 20.3125 7.03126" stroke="#2CC3A5" stroke-width="3.125"/>
<path d="M39.2625 5.4C38.7458 5.4 38.3125 5.225 37.9625 4.875C37.6125 4.525 37.4375 4.09167 37.4375 3.575C37.4375 3.05833 37.6125 2.625 37.9625 2.275C38.3125 1.925 38.7458 1.75 39.2625 1.75C39.7625 1.75 40.1875 1.925 40.5375 2.275C40.8875 2.625 41.0625 3.05833 41.0625 3.575C41.0625 4.09167 40.8875 4.525 40.5375 4.875C40.1875 5.225 39.7625 5.4 39.2625 5.4ZM40.6625 7.225V21H37.8125V7.225H40.6625ZM50.1043 7C51.1876 7 52.1543 7.225 53.0043 7.675C53.871 8.125 54.546 8.79167 55.0293 9.675C55.5126 10.5583 55.7543 11.625 55.7543 12.875V21H52.9293V13.3C52.9293 12.0667 52.621 11.125 52.0043 10.475C51.3876 9.80833 50.546 9.475 49.4793 9.475C48.4126 9.475 47.5626 9.80833 46.9293 10.475C46.3126 11.125 46.0043 12.0667 46.0043 13.3V21H43.1543V7.225H46.0043V8.8C46.471 8.23333 47.0626 7.79167 47.7793 7.475C48.5126 7.15833 49.2876 7 50.1043 7Z" fill="#2CC3A5"/>
<path d="M60.9646 3.625V14.7C60.9646 16.0167 61.3063 17.0083 61.9896 17.675C62.6896 18.3417 63.6563 18.675 64.8896 18.675C66.1396 18.675 67.1063 18.3417 67.7896 17.675C68.4896 17.0083 68.8396 16.0167 68.8396 14.7V3.625H71.6896V14.65C71.6896 16.0667 71.3813 17.2667 70.7646 18.25C70.148 19.2333 69.323 19.9667 68.2896 20.45C67.2563 20.9333 66.1146 21.175 64.8646 21.175C63.6146 21.175 62.473 20.9333 61.4396 20.45C60.423 19.9667 59.6146 19.2333 59.0146 18.25C58.4146 17.2667 58.1146 16.0667 58.1146 14.65V3.625H60.9646ZM81.1004 7C82.1837 7 83.1504 7.225 84.0004 7.675C84.8671 8.125 85.5421 8.79167 86.0254 9.675C86.5087 10.5583 86.7504 11.625 86.7504 12.875V21H83.9254V13.3C83.9254 12.0667 83.6171 11.125 83.0004 10.475C82.3837 9.80833 81.5421 9.475 80.4754 9.475C79.4087 9.475 78.5587 9.80833 77.9254 10.475C77.3087 11.125 77.0004 12.0667 77.0004 13.3V21H74.1504V7.225H77.0004V8.8C77.4671 8.23333 78.0587 7.79167 78.7754 7.475C79.5087 7.15833 80.2837 7 81.1004 7ZM90.5857 5.4C90.0691 5.4 89.6357 5.225 89.2857 4.875C88.9357 4.525 88.7607 4.09167 88.7607 3.575C88.7607 3.05833 88.9357 2.625 89.2857 2.275C89.6357 1.925 90.0691 1.75 90.5857 1.75C91.0857 1.75 91.5107 1.925 91.8607 2.275C92.2107 2.625 92.3857 3.05833 92.3857 3.575C92.3857 4.09167 92.2107 4.525 91.8607 4.875C91.5107 5.225 91.0857 5.4 90.5857 5.4ZM91.9857 7.225V21H89.1357V7.225H91.9857ZM97.8025 9.55V17.175C97.8025 17.6917 97.9192 18.0667 98.1525 18.3C98.4025 18.5167 98.8192 18.625 99.4025 18.625H101.153V21H98.9025C97.6192 21 96.6359 20.7 95.9525 20.1C95.2692 19.5 94.9275 18.525 94.9275 17.175V9.55H93.3025V7.225H94.9275V3.8H97.8025V7.225H101.153V9.55H97.8025ZM103.979 5.4C103.463 5.4 103.029 5.225 102.679 4.875C102.329 4.525 102.154 4.09167 102.154 3.575C102.154 3.05833 102.329 2.625 102.679 2.275C103.029 1.925 103.463 1.75 103.979 1.75C104.479 1.75 104.904 1.925 105.254 2.275C105.604 2.625 105.779 3.05833 105.779 3.575C105.779 4.09167 105.604 4.525 105.254 4.875C104.904 5.225 104.479 5.4 103.979 5.4ZM105.379 7.225V21H102.529V7.225H105.379ZM113.846 21.225C112.546 21.225 111.371 20.9333 110.321 20.35C109.271 19.75 108.446 18.9167 107.846 17.85C107.246 16.7667 106.946 15.5167 106.946 14.1C106.946 12.7 107.254 11.4583 107.871 10.375C108.488 9.29167 109.329 8.45833 110.396 7.875C111.463 7.29167 112.654 7 113.971 7C115.288 7 116.479 7.29167 117.546 7.875C118.613 8.45833 119.454 9.29167 120.071 10.375C120.688 11.4583 120.996 12.7 120.996 14.1C120.996 15.5 120.679 16.7417 120.046 17.825C119.413 18.9083 118.546 19.75 117.446 20.35C116.363 20.9333 115.163 21.225 113.846 21.225ZM113.846 18.75C114.579 18.75 115.263 18.575 115.896 18.225C116.546 17.875 117.071 17.35 117.471 16.65C117.871 15.95 118.071 15.1 118.071 14.1C118.071 13.1 117.879 12.2583 117.496 11.575C117.113 10.875 116.604 10.35 115.971 10C115.338 9.65 114.654 9.475 113.921 9.475C113.188 9.475 112.504 9.65 111.871 10C111.254 10.35 110.763 10.875 110.396 11.575C110.029 12.2583 109.846 13.1 109.846 14.1C109.846 15.5833 110.221 16.7333 110.971 17.55C111.738 18.35 112.696 18.75 113.846 18.75ZM129.513 7C130.597 7 131.563 7.225 132.413 7.675C133.28 8.125 133.955 8.79167 134.438 9.675C134.922 10.5583 135.163 11.625 135.163 12.875V21H132.338V13.3C132.338 12.0667 132.03 11.125 131.413 10.475C130.797 9.80833 129.955 9.475 128.888 9.475C127.822 9.475 126.972 9.80833 126.338 10.475C125.722 11.125 125.413 12.0667 125.413 13.3V21H122.563V7.225H125.413V8.8C125.88 8.23333 126.472 7.79167 127.188 7.475C127.922 7.15833 128.697 7 129.513 7Z" fill="#313749"/>
</svg>
