<svg width="30" height="21" viewBox="0 0 30 21" fill="none" xmlns="http://www.w3.org/2000/svg">
<path d="M14.298 16.598C16.898 19.198 19.498 16.5981 19.498 16.5981L24.6997 11.3997C27.3 8.80002 27.3 6.20002 24.7 3.60002C22.75 1.65002 19.5 1.00002 16.898 3.59806C14.296 6.1961 11.698 8.79806 11.698 8.79806C11.698 8.79806 9.09804 11.398 11.698 13.9981" stroke="#313749" stroke-width="2.6"/>
<path d="M14.2989 3.59884C11.6989 0.998853 9.09892 3.59884 9.09892 3.59884L3.89715 8.79716C1.29686 11.3969 1.29686 13.9969 3.89686 16.5969C5.84686 18.5469 9.09686 19.1969 11.6989 16.5988C14.3009 14.0008 16.8989 11.3988 16.8989 11.3988C16.8989 11.3988 19.5 8.80003 16.9 6.20001" stroke="#2CC3A5" stroke-width="2.6"/>
</svg>
